<?xml version="1.0" encoding="UTF-8"?>
<svg version="1.1" viewBox="0 0 2000 1125" width="1280" height="1280" xmlns="http://www.w3.org/2000/svg">
<path transform="translate(0)" d="m0 0h2e3v1125h-2e3z" fill="#652381"/>
<path transform="translate(793,136)" d="m0 0 2 1-28 17-17 12-13 10-13 11-10 9-25 25-7 8-13 16-14 20-15 25-12 23-10 22-10 28-7 24-9 36-7 25-5 24-4 29-1 12-1 36 1 25 3 28 5 27 6 24 12 36 11 26 13 26 12 20 8 12 10 14 11 14 12 14 14 15 11 11 8 7 14 12 20 15 18 12 15 9 26 14 25 11 28 10 25 7 28 6 27 4 25 2h41l25-2 32-5 26-6 24-7 30-11 30-14 23-13 22-14 17-13 14-11 12-11 8-7 15-15 7-8 12-14 15-20 10-15 12-20 14-27 9-20 10-27 8-29 6-26 3-20 2-26v-51l-2-28-5-30-8-32-8-31-8-30-10-29-11-25-10-20-10-17-14-21-9-12-11-14-11-12-12-13-17-16-11-9-16-13-16-11-9-6 2-1 23 13 24 16 16 12 16 13 11 10 8 7 19 19 7 8 13 15 12 16 12 17 12 19 14 25 12 25 13 33 8 25 7 28 5 27 3 24 1 14v56l-3 32-5 31-9 36-11 32-11 26-11 23-13 23-12 19-12 17-11 14-12 14-9 10-8 8-7 8-8 7-7 7-11 9-13 11-18 13-15 10-15 9-18 10-22 11-24 10-28 10-33 9-32 6-36 4-18 1h-36l-34-3-36-6-36-9-30-10-29-12-30-15-22-13-12-8-17-12-14-11-14-12-10-9-15-14-9-10-13-14-11-14-14-19-17-26-12-21-14-29-10-25-11-33-8-33-5-30-3-29-1-35 1-26 4-36 5-28 6-24 8-25 8-23 11-25 11-22 16-27 13-19 9-12 11-14 13-15 16-17 8-8 8-7 10-9 14-11 17-13 18-12 20-12 22-12z" fill="#fff"/>
<path transform="translate(945,244)" d="m0 0 5 1 4 3 12 1 6 3 1 1 3-6h18l3 4v2l5 2 6 9 10 8v2l7 2h6l11 8 8 4 11 5 5 6-1 5-2 4-3 4h-2v6l-3 6 9 2 5 1h9l3-2h5l4-5 5-3 3-1 1-14 2-3 9-1 5 4 3 8-1 14-3 6-4 1-6 3h-3l-2 4-6 4-4 7-4 1-5 7h-2l-2 5-4 5-5 5-4 5v8l-2 5-2 8-1 15v5l-4 2-1 7 2 5-1 6 3 3 10 6 5 7-3 7v5l7 1 2 6v7l-7 11-4 5-2 6-9 6-15 5-20 4h-13l-1 4-2 9-3 5-1 3 3 1-1 7-1 3-11 6h-13l-10-5-3-1 1 7v11l6 1 5-2h5l3 5v10l-3 4-8 3-8 4-4 8 2 1-1 10-3 5-2 1 1 5-4 4-7-1-6 4-3 1-7 12 1 7 5 5 3 4 10 1 5 4v18l-3 1v3l-5 3-2 3-7 4h-2l-1 4-4 3-3 18-5 5-11 6-2 10 3 15 4 8 3 5-1 5-2 2 5 9 3 12 9 10 8 5 5 5 4 2 11 1 2 3-4 8-1 1-14 1v2l-6-1-4-2-19-1-7-1 1-3 1-54-5-3-8-2-2-1-28-1-2-5-5-5-1-4 1-5 1-8-4-1-2 2-5-1-2-5-2-7-2-4v-14l2-5h4l1-4 2-3 4-2v-7l3-2-1-4-1-1 1-7 2-7 4-1v-7l2-5h2l-2-7-2-4 3-3v-8l1-2 4-2-1-4-8-1v-7l5-2-2-2 1-11-2-6v-6h-2l-1-6v-12l3-5v-14l-1-8 2-4v-6l2-4v-7l3-2 1-10 6-4-3-12v-19l2-6 4-1 2-4 2-5-2-6 1-5 4-9 4-8-1-10-2-3-1-11-2-3-2-7-1-3v-8l4-9 4-6 1-1-2-14 3-4 1-6-1-3h2v-3l4-2 9-17 4-1-2-3v-7l1-3-2-8 1-7 1-6 4-5 10-4h2l1-8 1-6-1-3 2-5 4-1 1-4 5-2z" fill="#FDFDFE"/>
<path transform="translate(767,153)" d="m0 0h2l-1 8-6 4-6 7-2 4-3 2h-2l-5 5-3 5-4 1-6 7 1 3 4 2 3 4v4l4 2 3 7 5 4 7 11 8 6 6-3v-7l-6-10-1-4-5-5-1-5h-3l-3-7-5-5-1-5 1-2 3-3 11-7 5 2 4 5v4h3l3 7 5 5 1 5h3l7 11 2 5v17l-6 9-9 8-10 5-4 1h-10l-7-3-5-3-1-3-3-1-7-10-5-7 1-4 12 16 6 7 7 4h14l12-6 7-6 4-6 2-8-2-3-3-10-11-16-12-17-2-2-10 7 2 5 13 18 9 14 1 8-4 6-5 3h-7l-8-7-13-18-9-13-5 2-4 2-5 2 3 6-1 2-3-1v-2l-5-1-6 8-4 2-6 9-3 1-3 6h-2l-2 5h-2l-2 5-2 2-4 5-3 3-2 4-6 8-3 7-4 4-12 21-7 14-1 5-3 4-2 6-4 8v3h-2l-3 10-1 7-4 8v4h-2v7h-2l-2 11-4 16-1 8h-2v7l-3 7-2 10-2 1-2 11v5h-2l-1 12-2 8v7h-2l1 8-1 3v6h-1v11l-1 4v15h-1v25h1v19l1 3v8l1 2v6l1 2-1 6 2 1v11l2 1v9l2 1v8l2 1 2 8 2 13 2 1 1 6 3 5 2 7v5l2 1 2 5 2 7 2 3 3 9 1 4h2l3 9 7 13 2 4 6 10 2 4 10 16 5 6 2 4 10 13 9 11 5 6h2l4 7 23 23 8 5v2l11 9 17 13 10 7 4 2 10 7 7 4 4 2 7 3 3 3 11 5 13 5-11-6-1-3h-2v-6l21-42h2l2-6 4-9 9 1 3 2v2l6 2 14 7 8 2 2 1v2l3 1 1 4-5 10-2 2h-6l-16-8-3-1v4l17 9 2 2v6l-5 9-4 1-13-5-3-2v-2l-7-1-2 8 5 1 8 4v2l6 2 6 3-1 7-4 8 2 5 9 2 1 2h5l7 2 9 3 11 2 1-2h2v-3h2l1-12 7-44 2-4-1 11-7 45-1 9 18 2 2-17 2-7 9 3 4 8 4 13v4l16 2 4 1-8-25-5-9 8-5 3-6v-14l-2-5-4-2-11-4-29-5v-1l12 1 25 4 3 1v2l5 2 5 8v11l-3 7-6 7 10 30 2 3h38l4-1h8l1-4-1-21-1-16h-2l-1-9-18 1-4-3-1-5v-8l3-4 24-3 24-1v-2l12-1 3 4 1 7-2 4-3-12-56 7h-4l3 14 20-2 3 20 4 27v4l18-2-6-45v-7l15-2h5l-3 2-14 2v11l3 23v8h2l1 4v5h7l6-2 4 1 1-2 13-2 12-3 5-2v-25l-2-30-1-1-1-8v-9l5-5 13-6h6l9 10 13 12 11 11 3 5 6 4 8 9-1 6 9-4 10-6 4-2 1-2 5-2 4-2 5-2 4-4 3-1 3-2 2-4h5v-2l4-3 3-1 3-3 2-1 1-2 4-1 1-3 5-2 2-4 4-1v-3l5-4 5-2 19-19 2-5 3-4h3l2-5 4-2 2-5 3-1 1-4 2-1 2-4 2-1 2-4 3-3 1-4 4-3 1-2 4-6 1-3 5-8 2-4 3-7 3-3 12-23v-3h2l2-6 7-17v-3h2l1-7 4-10 4-13v-4h2l2-11 2-8v-5h2l-1-5h2l-1-5h2l-1-6 1-4 1-7 1-2v-9l1-4v-11h1v-56l-1-4v-11l-1-2v-9l-1-6-2-8-1-14-2-1-1-12-2-1 1-3-2-1-2-14-2-1-2-11-8-32v-3l-2-1v-6l-2-1-1-6-4-10-2-10-2-1-3-10-3-6-2-7h-2l-1-5-9-17-2-4-6-10-2-4-12-19-5-6-2-1-3-7-11-14-3-1-2-5-5-4-3-5-9-8-3-5-5-5-4-1-1 5-7 10-13 20-3 5h-3l-2 5-5 7-2 5-1 1h-6l-8-7-5-2-2-2v-10h2v-24l-2-1-2 5-9 14-4 4-6-1-10-7-2-3 1-5h2l1-4 13-20 1-2h3l2-5 11-16 2-5 4-1 12 7 5 4 1 6-1 14-1 9v6h2l2-5 4-6 4-4 3-6 1-1h7l1-3-7-6v-3l-8-10-1-6 4 1 16 13 11 9 8 8 8 7 9 9 7 8 10 11 10 13 13 18 12 19 12 22 12 25 9 24 8 25 12 48 7 27 5 24 3 25 1 17v51l-2 26-4 25-10 40-9 27-11 26-13 26-13 22-15 22-10 13-11 13-7 8-11 12-14 14-8 7-13 11-20 15-15 10-20 12-22 12-27 12-34 12-31 8-27 5-25 3-15 1h-41l-25-2-33-5-34-8-36-12-23-10-17-8-23-13-19-12-16-12-13-10-14-12-15-14-12-12-7-8-12-14-15-20-10-15-12-20-12-23-8-17-10-26-8-25-7-28-5-31-2-20-1-34 1-27 3-29 5-28 16-60 7-27 10-29 11-25 11-22 15-25 14-20 11-14 10-11 7-8 27-27 11-9 15-12z" fill="#541F6C"/>
<path transform="translate(758,149)" d="m0 0h8v2l-22 13-15 10-14 10-14 11-13 11-10 9-12 11-8 8-7 8-10 11-11 14-10 13-18 27-15 26-12 24-11 27-11 33-7 27-5 25-4 31-1 12-1 36 1 25 3 29 5 30 9 36 11 33 11 26 12 25 10 18 22 33 14 19 12 14 11 12 15 16 8 7 12 11 11 9 17 13 16 11 19 12 22 12 22 11 27 11 30 10 36 9 36 6 34 3h36l30-2 30-4 30-6 35-10 27-10 25-11 24-12 17-10 19-12 16-12 13-10 13-11 24-22 7-8 9-9 9-11 11-13 13-18 11-17 9-15 14-26 13-29 10-27 6-19 8-32 5-31 3-32v-56l-3-31-5-29-6-25-7-24-9-25-13-30-14-27-12-20-13-19-12-16-8-10-12-14-14-15-15-15-8-7-13-11-17-13-17-12-14-9-1-2h9l15 6h3l4 4 4 1 4 4 7 4 2 1 3 2 4 4 6 4 3 1 1 3 5 2 1 3 8 7 5 3 7 8 17 17 7 8 11 13 2 2 2 4 9 11 6 8 2 4 6 8 2 4 12 20 13 24 5 9 2 6 3 5 2 5 1 4v2l2 1v4l2 1 2 5-1 2 2 1 2 5 2 9 4 10 1 2-1 3 2 1v6l2 1 2 11 2 8v4l2 1-1 4 2 1 1 8 1 2 1 11 1 5 1 2v6l1 2-1 8h1l1 9 1 3v14h1v41h-1v18h-1v11h-1v9h-1v8l-1 3-1 10-1 4-3 11v6l-2 3-1 9-1 4h-2l-2 10-3 10v4h-2l1 3h-2v6h-2l-1 9-7 14-9 21-3 6-1 4-3 5-2 4-6 11-2 4-3 7-4 4-9 15-5 7-2 4-8 10-2 5-5 4-2 5h-2l-7 9-1 3h-2l-5 8-4 2-6 8-6 7-10 10-4 2-6 5-2 4-4 2-5 5-4 3-1 2-6 3-18 14-1 2-7 3-18 12-20 12-30 15-3 2-9 3-4 1-1 2-9 2-1 2-7 1-1 2-5 2-9 2-6 3-10 2-7 2-16 4h-4l-1 2-9 1-6 2-11 1-13 2-2 1h-6l-3 1h-7l-3 1h-11l-4 1h-56l-4-1h-8v-1h-9l-3-1h-5l-3-1-4-1-11-2h-6v-2l-5 1v-2l-5 1v-2h-9v-2l-16-2v-2l-9-1-7-2-4-2-9-3-5-1-6-3-5-1-10-4-10-5-4-1-38-20-4-2-11-7-4-2-11-8-16-11-10-8-4-2-5-5-11-9-3-2-37-37-3-2-4-7-8-9-8-11h-2l-2-5-7-9-2-4-14-21-7-11-2-4-3-5-12-24-5-12-4-9v-2l-2-1v-4l-2-1-3-10-8-24v-3l-2-1v-6l-2-1-2-11-1-8-2-1v-8l-2-1 1-4-2-1v-10l-2-1 1-5-2-1v-5l-1-2-1-14-1-2v-8l-1-3v-11h-1v-50h1v-15h1v-10h1v-8h1v-8h1l1-11 2-1v-11h2l-1-5h2v-9h2l2-16 3-7 3-10 3-11 4-10v-3h2l3-12 5-10 4-10v-2h2l2-6 13-25 7-12 2-1 2-5 3-5 3-7 3-2 2-4 5-5 2-4 3-3 2-4 2-1 2-4 2-1 1-3 2-1 2-4 3-1 1-4 5-3 1-4 6-4 3-6 3-3 2-3 5-3 4-4 1-4 5-3 4-2 4-4 4-5 4-1v-4h5l1-5 5-2v-2l4 1v-4l4-1v-2l3-1 4-2v-2l3-1 4-2 19-11 19-9z" fill="#551F6D"/>
<path transform="translate(702,190)" d="m0 0h3v2l-10 8-14 12-16 15-7 7-7 8-10 11-11 14-10 13-18 27-15 26-12 24-11 27-11 33-7 27-5 25-4 31-1 12-1 36 1 25 3 29 5 30 9 36 11 33 11 26 12 25 10 18 22 33 14 19 12 14 11 12 15 16 8 7 12 11 11 9 17 13 16 11 19 12 22 12 22 11 27 11 30 10 36 9 36 6 34 3h36l30-2 30-4 30-6 35-10 27-10 25-11 24-12 17-10 19-12 16-12 13-10 13-11 24-22 7-8 9-9 9-11 11-13 13-18 11-17 9-15 14-26 13-29 10-27 6-19 8-32 5-31 3-32v-56l-3-31-5-29-6-25-7-24-9-25-13-30-14-27-12-20-13-19-12-16-8-10-12-14-14-15-15-15-16-14 2-1 11 7 13 11 10 9 17 17 9 11 11 13 13 18 12 18 14 24 15 30 11 27 12 36 7 28 5 27 3 24 1 14v57l-3 33-5 30-6 26-9 29-10 27-12 26-10 20-13 22-14 21-12 16-13 16-11 12-7 8-21 21-8 7-14 12-20 15-24 16-15 9-24 13-26 12-29 11-26 8-24 6-27 5-36 4-17 1h-38l-26-2-35-5-31-7-28-8-25-9-30-13-27-14-23-14-16-11-16-12-16-13-11-10-8-7-22-22-7-8-11-13-15-20-20-30-12-21-8-16-9-19-11-28-9-28-9-38-5-33-2-21-1-23v-17l2-35 4-30 5-26 8-30 11-33 11-26 9-19 13-23 13-21 13-18 10-13 12-14 11-12 19-19 22-18z" fill="#411753"/>
<path transform="translate(712,197)" d="m0 0 2 1-8 11-13 15-9 11-15 20-13 20-10 17-12 23-10 22-9 25-8 27-9 35-8 30-5 26-3 24-1 14v51l3 30 4 24 8 32 12 35 11 25 11 22 15 25 12 17 12 16 13 15 12 13 15 15 8 7 13 11 16 12 21 14 15 9 24 13 25 11 28 10 25 7 22 5 25 4 20 2 18 1h27l29-2 28-4 32-7 29-9 26-10 26-12 18-10 21-13 17-12 14-11 14-12 13-12 15-15 7-8 11-13 12-16 14-21 14-24 12-24 11-27 9-27 7-28 5-27 2-19 1-20v-35l-2-32-4-27-7-30-9-34-8-31-9-27-11-26-13-26-12-20-12-18-10-14-13-17-8-10-5-7v-2l4 2 15 16 11 13 14 19 12 18 10 17 12 23 9 20 9 25 7 23 11 44 7 27 5 24 3 25 1 17v51l-2 26-4 25-10 40-9 27-11 26-13 26-13 22-15 22-10 13-11 13-7 8-11 12-14 14-8 7-13 11-20 15-15 10-20 12-22 12-27 12-34 12-31 8-27 5-25 3-15 1h-41l-25-2-33-5-34-8-36-12-23-10-17-8-23-13-19-12-16-12-13-10-14-12-15-14-12-12-7-8-12-14-15-20-10-15-12-20-12-23-8-17-10-26-8-25-7-28-5-31-2-20-1-34 1-27 3-29 5-28 16-60 7-27 10-29 11-25 11-22 15-25 14-20 11-14 10-11 7-8z" fill="#411753"/>
<path transform="translate(945,241)" d="m0 0h6l7 3 16 1 5-2h13l7 3 6 7 7 9 4 2v2l4 1v2l10 3 10 5v2l4 1 2 1v2l7 1 5 3 8 5 3 5v8l-6 12-1 3h2v2h11l10-3 4-1 1-3h2l2-5 2-10h2v-2h2v-2l2-1h10l6 5 3 6 1 5-1 14-6 9-8 3-7 5h-2l-2 4h-2l-2 5-5 4-4 5-1 2h-2l-2 5-5 5-3 1-1 4-5 18-1 12-1 3v8l-3 5v9l1 6 6 3v2l5 2 1 4h2l2 13 4 4 2 6v9l-2 4h-2l-1 5-2 3h-2v3h-2l-1 5-4 5h-2l-2 4-10 4-21 6-7 1-13 2-4 14 1 2-2 10-5 5-10 5-8 1-6-1-5-2v5h11v2l3 1v3h2l2 8-3 10-10 6-6 1-2 4-1 5-1 9-3 7-3 8-4 3-13 2-2 4-5 8 3 7 1 3 7 1 9 5v2l3 1 1 10-3 12-4 5-4 3h-2l-1 3-7 5-4 7-2 11-3 7-10 7-4 3-1 8 1 6 1 5-1 3 5 10-1 3-6-9-2-5-3-15 2-10 4-3 10-5 3-7 2-14 3-3h2l1-4 6-4h3l2-4 2-2h3v-3l2-1v-18l-4-3-10-1-5-6-4-4-1-7 8-13 6-3 5-2 5 1 3-3 1-4-2-1 3-2 2-4 1-10-1-4 5-7 7-3 9-4 1-2v-10l-2-4-14 2-3-2v-11l-1-2v-6l11 4 3 2h13l9-5h2l2-10-4-1 3-7 1-1 2-9 2-4 19-2 18-4 13-5 7-5 2-7 5-6 5-8v-7l-1-6-7-1-1-5 3-7-5-7-12-7-1-3 1-5-2-7 2-5 3-2v-11l1-9 3-12 1-1v-8l8-10h2l2-4 4-6 3-3 5-6h3l3-6 3-3 5-3 1-2 9-4 2-1 2 1 2-6 1-14-4-9-5-2-7 1-1 6-2 10-5 4-5 3-2 3-7 1-2 1h-9l-6-2-8-1 3-8 1-5 4-4 2-4 1-5-5-6-15-6-14-10h-6l-7-3-5-5-8-7-4-7-4-2-3-5h-18l-3 6-4-3-3-1-12-1-6-4-3-1-2 6-5 2-1 3-4 1-1 7 1 5-3 10-13 6-3 5v8l-1 5 2 8-1 1v7l2 4-5 1-8 16-2 2h-3v3h-2v2l2 1-2 7-2 3 2 15-4 4-4 9-1 2v8l2 4 2 8 2 7 1 7 1 1 1 11-3 5-4 10-2 2 1 5 1 6-3 5-4 4h-2l-1 13v12l3 13-6 3-1 10-3 2v8l-2 5-1 6-1 3 1 14v8l-3 4v18h2l3 14-1 9 1 1 7 1v1l-11 1-1 7 8 1 2 4-2 2h-3v11l-3 3 3 4v6l-2 1-1 9-1 2-4 2-2 8v5l2 2-1 4-2 1v7l-5 3-3 6h-4l-1 10v10l3 4 2 10 5 1 3-2 4 2-1 8-1 6 3 6 3 2 1 4 28 1 4 2 8 2 4 4-1 53-2 3h14l12 1 10 4v-2l14-2 3-6 2 4v2l13-2 3-1v-2l3-1v3l-2 3h-2v2l-12 3-17 1-6 2-13-3-8-1h-9l-5-2-3-3v-52l-4-4-8-2-19-1-7-1v-2l-4-1-4-4-3-6-1-5v-5l-8-6v-3l-2-1-5-14v-15l5-8 5-5 4-9v-11l3-9h2l1-5 3-9-1-12 3-10-5-10 2-10 1-3v-8l-3-9-1-8v-10l2-10v-18l1-5 1-7 3-11 6-15 1-5-2-11v-10l3-10 4-6h2v-13l8-20v-7l-2-5-2-12-2-5-2-9 1-9 2-5 4-9 1-17 2-5 1-5 5-7h2v-3h2l1-4 5-12 1-12-1-2v-8l2-10 3-1 2-4 5-4 5-3 2-5 1-11 3-4h2l2-5z" fill="#521E6A"/>
<path transform="translate(876,644)" d="m0 0h49l4 9 5 5 4 5 12 2 1 5-1 3-5 3 2 2-1 4-8 7-5 3-6 8-6 12h3l-1 7-4 1-5-4-1 2-7 3-3 3h9l-5 6-2 9-3 4 3 1 2 7-6 2 1 4 7 2 2 6-9-2-5-2-24-1-5-5v-22l-2-1h-10l-2-7-2-6v-9l5-2 2-3-1-3 5-3 1-1 1-7 3-2-1-9-1-4 5-8 3-3-1-6 3-3z" fill="#662482"/>
<path transform="translate(1027,425)" d="m0 0 18 8 3 3v8l11 4 6 5-1 5-1 6 2 6 4 2 3 1v6l-7 10-4 6-1 4-10 5-13 4-21 4h-9l-6-3-5 1 1 11 2 2-1 5-3 7 1 11-8-4v-101l21-1 11-12h5z" fill="#662482"/>
<path transform="translate(876,570)" d="m0 0h85l5 5-5 4 1 4 3 3-5 5-3 5v14l-5 6-1 3-8 2-9 6-5 9-1 2h-51l-2-3 4-1 2-4-1-6-1-3 3-2 2-6-4-4-5-1 1-9-1-7 1-6-5-1v-9l2-4z" fill="#662482"/>
<path transform="translate(923,501)" d="m0 0 3 1v2l7 1 7 5v2l19 2h8l9 3 6 5 1 24 6 2v1h-10l-10-5-3-2h-5l-2 5 1 17h-85l-1-6v-5h7l3-2 1-6 11-3 4-10 6-3 3-3 3-1 5-7 6-2z" fill="#662482"/>
<path transform="translate(1070,131)" d="m0 0h12l13 4 6 4 7 8 3 8v13l-4 13-6 8-8 6-7 2h-11l-13-4-9-6-5-7-2-6v-16l4-11 6-9 10-6z" fill="#fff"/>
<path transform="translate(765,777)" d="m0 0 4 1 9 9 8 7 7 8 3 8-1 6-4 6-4 3-7 1-5-2 3 6v7l-4 7-6 5-2 1h-9l-9-5-10-9-14-13 2-4 8-8 7-8 7-7 7-8 8-8z" fill="#fff"/>
<path transform="translate(971,363)" d="m0 0 4 1 6 2 1 2h16l1 5v6l3 4-3 10-1 5 1 6 4 7 1 3-9 14-5 7h-8v10h-17v-27l2-7v-7l-9-7-2-1v-11l4-12 5-3 3-6z" fill="#662482"/>
<path transform="translate(965,451)" d="m0 0h17v64l-9-5-28-3-4-3-4-2-1-3h-6l-1-3v-7l-6-2v-20h42z" fill="#662482"/>
<path transform="translate(906,403)" d="m0 0 8 2 8-1 2 2 6 2 2 15 4 8 1 3 1 9 2 4v11l-1 3h-22v24l-6-2-3-2-6-1-2-5-5-6-1-9v-10l3-9 4-4v-13l1-6-3-1v-5l-2-1 1-4 5-1z" fill="#662482"/>
<path transform="translate(914,864)" d="m0 0 17 2 18 4 8 5 3 8-2 11-4 5-10 4 5 3 4 6 6 19-1 4-12-2-3-3-6-19-4-4-10-3-3 21-1 3-11-1-3-1 1-13 7-45z" fill="#fff"/>
<path transform="translate(1188,788)" d="m0 0h9l6 4 4 5 2 8-3 8-1 2 5-2 10 1 20 8-6 7-5 4-16-6-3-1h-8l-6 4v4l11 12 2 5-9 9h-2l-7-8-11-12-7-8-12-13-4-6 7-7 8-7 10-8z" fill="#FEFEFE"/>
<path transform="translate(1188,174)" d="m0 0 9 5 5 4v9l-4 41 4-4 12-19 9-13 9 5 3 3-13 20-21 32-5-2-10-7 2-26 2-21 1-3h-3l-2 5-20 30-5-1-7-5 2-5 12-19 19-28z" fill="#fff"/>
<path transform="translate(887,130)" d="m0 0h3l6 18 12 41-3 2-10 3h-5l-9-9-7-8-17-17-1 2 11 37v3l-13 4-7-22-11-38 10-4 7-1 34 34 1-1-11-37v-4z" fill="#fff"/>
<path transform="translate(1107,842)" d="m0 0 4 2 31 31 7 8 6 7-12 6-7-6-4-2-23 10v13l-11 5h-2l-3-38-1-15v-14z" fill="#fff"/>
<path transform="translate(1318,659)" d="m0 0h8l-1 7-3 7-12 1-8 25 4 4 5 4-3 12-2 2-15-12-17-13-16-13-4-3 3-11 3-7 11-1z" fill="#fff"/>
<path transform="translate(763,181)" d="m0 0 4 4 22 32 3 10-2 10-6 8-8 6-8 4-9 1-8-3-8-7-13-18-10-14v-3l10-7 4 2 11 16 10 14 7 6h7l6-4 2-4-1-8-7-11-13-18-4-6 2-4z" fill="#fff"/>
<path transform="translate(975,306)" d="m0 0h29v37l-3 19-14 1-6-2-6-3-9 1-1-2v-20l1-2 1-5 4-9h2v-10z" fill="#662482"/>
<path transform="translate(1010,341)" d="m0 0h30v7l-2 5-4 5-1 13v8l-8 12-5 3-2 13 2 10 3 4-7 2-6 8-4 4h-9l8-14 4-5v-5l-6-10 1-6 5-17-4-1v-8l4-26z" fill="#662482"/>
<path transform="translate(836,833)" d="m0 0 6 2 33 16-1 5-3 5-6-2-20-10-2 6-2 4v3l21 10 1 3-4 7-5-1-19-9-6 12-1 3 6 2 19 9-1 5-2 5-5-1-29-14-6-3 1-5 19-39z" fill="#fff"/>
<path transform="translate(1032,730)" d="m0 0 9 2 5 2v3l6 3v-2l8 1v-3l11 3 5 3h4l-2-5 4 1 10 2 1 1 9 1 1 3h2l1 8-4 3-7 3-2 2-2 5-7 3-6 2-4-1-1 4-5-2-2 4-4-2v-6-4h-6l-4 6h-4l-1 2-4-3-3-1-3-5v-3l-4-1-1-4 1-4 3-1 1 3 7 1v6h2v-2h2l-3-5v-3l-4-1v-2l3-1-1-4-3-3-1-4-6-2-2-2z" fill="#F5F1F7"/>
<path transform="translate(979,253)" d="m0 0h11l6 5v27l-11 14-1 1h-8l-4-1-2 6-2 4h-6l-4-2h-5l-2 2h-7l-1-3 2-1 1-5-2-4-21-1-4-3 2-4 5-3 8-4 5 2h6l1-3 4 2 4 5 9 3h7l6-5 1-16h-8l-3-1-1-5-3-2 1-6 4 1 3 10 5-1 2-7z" fill="#662482"/>
<path transform="translate(888,125)" d="m0 0 5 1 5 13 2 11 2 10h2l7 23 1 8-2 3h-7v2l-9 3-6-1-8-8-3-5-12-12-2-1v5h2l7 24-2 5-13 4h-5v-2h-2l-5-15-4-14-3-10-1-7-2-10h-2l-1-8 2-3 13-4h8l7 6 3 5 9 9 5 2-6-20v-8l2-2zm-1 5-10 3 1 7 10 34h-2l-33-33-10 2-7 3 9 31 8 27 2 2 12-4-2-10-9-30 1-2 23 23 7 8 3 3 9-1 9-3-7-25-10-33-1-2z" fill="#471A5B"/>
<path transform="translate(888,473)" d="m0 0h3l5 6 2 5 6 2 4 2 9 4v20l-6 5-5 5-5 4-6 3-3 9-5 1-6 3-2 6-5-1 1-6 1-1 1-12 3-7v-6l2-2 5-2v-6l-1-1-2-10v-18z" fill="#662482"/>
<path transform="translate(1043,865)" d="m0 0h8l1 1 1 9-20 3-1 1 6 46v5l-7 1h-8l-6-45v-6l-14 2h-8l-1-10 11-2z" fill="#fff"/>
<path transform="translate(1074,142)" d="m0 0h11l7 4 4 8v11l-4 12-6 7-4 2h-10l-7-4-3-4-1-3v-14l4-11 4-5z" fill="#63237E"/>
<path transform="translate(699,653)" d="m0 0 3 1 3 10v3l-35 12-13 4 3 11 5 15v2l-10 3-4-10-10-32 36-12z" fill="#fff"/>
<path transform="translate(1191,783)" d="m0 0 10 2 5 3 2 3v3l3 1 2 5 1 8 14 4 4 2v2l10 2 3 2-1 6-5 3-6 7-8 1-17-7v-2l-8 2 1 5 9 8 1 3 3 2-1 5-2 1-3 5-6 5-7-1-3-3-1-3-5-4-3-5-4-2-5-8-4-2-6-9-6-5-2-4-3-2 1-6 2-1 1-3 8-5 2-4 10-8h4v-3zm-3 5-10 6-12 11-8 7v3l11 12 7 8 12 13 7 8 3 4 4-2 7-7-2-5-8-8-4-5 2-4 5-3h8l18 7 5-3 7-7-2-2-18-7-10-1-5 2 3-6 1-6-3-8-7-6-2-1z" fill="#481A5C"/>
<path transform="translate(910,338)" d="m0 0 5 1 8 5v2h16l3 3 1 5 5 2 8 11-3 11-2 6-1 11-7 1-2-4h-2l-1-4v-6l-4-6-11-12-5-3-5-1v-9l-4-6-2-1 2-4z" fill="#662482"/>
<path transform="translate(1e3 286)" d="m0 0 11 6 5 5 4 2 3 5v2l5 2 2 2v3l5 2 7 3 4 5h-2l-2 5-1 7h-33v-35h-18l2-4z" fill="#662482"/>
<path transform="translate(1051,330)" d="m0 0h8l11 3 12 1 2 5-1 4-9 11-4 6-5 4-3 5h-2l-1 4h-2l-2-3-8-1-8 2-1-7 1-5 4-3 3-13 2-4 1-8z" fill="#662482"/>
<path transform="translate(903,349)" d="m0 0 3 1 2 3v12l9 1 10 10 5 6 1 9v3l-4 1-1 6h-2v-2h-13l-4-2-4 1-9 4-2-6-2-1v-7l2-1 2-9 4-3 1-5-2-12 2-1z" fill="#662482"/>
<path transform="translate(934,401)" d="m0 0h21l3 3 1 3 3 1-2 9-1 44h-14v-15l-3-6v-9l-5-9-2-15z" fill="#662482"/>
<path transform="translate(1048,374)" d="m0 0 4 1 5 8-3 7v5l-2 4v15l-3 2-2 11-8-2-9-5v-2h-2v-2l-3-1-2-5 1-12 6-5 8-13 1-3z" fill="#662482"/>
<path transform="translate(762,176)" d="m0 0 5 2 4 5v4h3l3 7 5 5 1 5h3l7 11 2 5v17l-6 9-9 8-10 5-4 1h-10l-7-3-5-3-1-3-3-1-7-10-5-7 1-4 12 16 6 7 7 4h14l12-6 7-6 4-6 2-8-2-3-3-10-11-16-12-17-2-2-10 7 2 5 13 18 9 14 1 8-4 6-5 3h-7l-8-7-13-18-9-13-5 2-4 2 2-4 7-4 8 10 4 6 6 4 10 14 6 4 6-3v-7l-6-10-1-4-5-5-1-5h-3l-3-7-5-5-1-5 1-2 3-3z" fill="#63237F"/>
<path transform="translate(845,705)" d="m0 0 1 2-1 3v12l5 14v2l7 1 3-2 4 2-1 8-1 6 3 6 3 2 1 4 28 1 4 2 8 2 4 4-1 53-2 3h14l12 1 10 4v-2l14-2 3-6 2 4v2l13-2 3-1v-2l3-1v3l-2 3h-2v2l-12 3-17 1-6 2-13-3-8-1h-9l-5-2-3-3v-52l-4-4-8-2-19-1-7-1v-2l-4-1-4-4-3-6-1-5v-5l-8-6v-3l-2-1-5-14v-15z" fill="#541F6C"/>
<path transform="translate(1312,655)" d="m0 0h17l2 2-1 7-3 10-3 3-7 1-5 1-1 5-3 11 1 4 6 6-1 10-4 10-7-1-6-4v-2l-5-2-7-6-1-2-6-3-5-6-5-2-7-6-2-3-5-2-4-4 1-9 1-2h2v-7l3-5 7-1 47-2zm6 4-47 2-11 1-4 10-2 8 16 13 13 10 14 11 9 7 2-2 3-12-9-7 6-20 2-6 12-1 4-10v-4z" fill="#64237F"/>
<path transform="translate(697,649)" d="m0 0h6l3 3 4 13-1 5-6 3-16 5-23 8-1 3 6 18v6l-4 3-6 2h-6l-4-5-6-19-4-14-2-5 1-5 3-3 18-6 11-2 18-6h3v-2zm2 4-56 18-2 2 13 40 3 1 8-3-3-11-5-15v-2l46-15 2-1-2-10-2-4z" fill="#4A1B5E"/>
<path transform="translate(1228,733)" d="m0 0 11 6 15 10 20 13 7 5-5 9-2 3-5-2-16-10-23-15-9-6 2-5z" fill="#fff"/>
<path transform="translate(732,729)" d="m0 0 4 4 4 7-1 3-26 16-19 12-5 3-4-2-5-8 2-4 26-16 19-12z" fill="#fff"/>
<path transform="translate(967,120)" d="m0 0h14l1 8v55h-14l-1-14z" fill="#fff"/>
<path transform="translate(1e3 268)" d="m0 0h2l3 3 7 5 3 3 14 4 8 6 7 4 4 1v2l7 1 2 2-1 4-4 6-3 7-5-3-6-3-5-4-3-3-2-1-3-5-9-7-2-3-5-2-9-6z" fill="#662482"/>
<path transform="translate(890,127)" d="m0 0 3 4 17 57v3l-11 4-9 1-7-6-7-8-17-17 11 37-4 3-13 3-4-10-14-47-1-7 15-5h5l30 30-3-12-7-25zm-3 3-10 3 1 7 10 34h-2l-33-33-10 2-7 3 9 31 8 27 2 2 12-4-2-10-9-30 1-2 23 23 7 8 3 3 9-1 9-3-7-25-10-33-1-2z" fill="#63237E"/>
<path transform="translate(1060,410)" d="m0 0h2v8l-3 5v9l1 6 6 3v2l5 2 1 4h2l2 13 4 4 2 6v9l-2 4h-2l-1 5-2 3h-2v3h-2l-1 5-4 5h-2l-2 4-10 4-21 6-8-1-12 2-3 5-3 12-4 1-1-2 3-6 1-1 2-9 2-4 19-2 18-4 13-5 7-5 2-7 5-6 5-8v-7l-1-6-7-1-1-5 3-7-5-7-12-7-1-3 1-5-2-7 2-5 5-2z" fill="#541F6C"/>
<path transform="translate(1226,729)" d="m0 0 7 1 14 9 4 4 7 3 8 7 9 4 8 6 2 2-1 7-3 5h-3l-1 5-2 1h-6v-2l-4-1-4-3v-2l-5-2-10-5-7-5-4-4-7-3-11-7-1-5 1-3h2l1-4zm2 4-7 11 1 3 19 12 26 17 5 3h2l7-11-5-5-16-10-23-15z" fill="#63237E"/>
<path transform="translate(1183,179)" d="m0 0v3l-21 32-7 11v2l8 5h3l16-25 6-9h3l-4 45v5l14 9 2-5 18-27 13-20-10-7-4 5-20 30h-2v-10l3-31 2-3v14l-2 24 10-16 11-16 6 2 9 7-2 5-29 44-5 7-11-7-6-4 1-17 2-21v-6l-20 30-3 1-13-9 4-8 24-36z" fill="#63237E"/>
<path transform="translate(835,831)" d="m0 0 6 1 36 18 1 2-6 12-20-9-6-2-4 8 6 2 16 8 2 2-6 12-9-3-16-8-2 6-3 6 9 3 17 9-4 10-2 3-6-2-37-18 3-9zm1 2-16 33-10 21v3l28 14 9 4h3l3-7v-3l-23-11h-2l6-14h3l19 9 4-1 3-6-1-3-21-10 1-5 3-6v-2l24 12 3-1 3-6v-3l-22-11-15-7z" fill="#63237E"/>
<path transform="translate(1069,129)" d="m0 0h13l12 3 9 6 7 8 2 5v3h3l1 10-2 11-2 5h-2l-2 8-5 4-4 5-10 4h-18l-13-5-8-6-2-2-2-8-2-5-1-10 2-11 4-10 7-8 5-4zm1 2-10 4-5 4-6 10-3 9v16l4 9 4 5 10 6 11 3h11l9-3 9-8 5-10 2-8v-13l-4-10-8-8-12-5-5-1z" fill="#63237F"/>
<path transform="translate(912,860)" d="m0 0h9l11 2v1l-14-1 25 4 11 4 5 5 2 3v14l-4 7-7 4 7 14 5 16v4l-17-2-3-1-7-22-2-3-8-2-4 23h-8l-10-2v-9l7-46-2 13-2-1 3-20zm2 4-6 36-3 19v7l9 2h5l3-15 1-9 10 3 4 4 7 21 8 2 7 1-1-7-6-18-5-6-3-1 10-4 4-5 2-11-3-8-8-5-18-4z" fill="#63237E"/>
<path transform="translate(934,640)" d="m0 0 1 3 1 6 7 6 6 1h3l5 3v2l3 1 1 10-3 12-4 5-4 3h-2l-1 3-7 5-4 7-2 11-3 7-10 7-4 3-1 8 1 6 1 5-1 3 5 10-1 3-6-9-2-5-3-15 2-10 4-3 10-5 3-7 2-14 3-3h2l1-4 6-4h3l2-4 2-2h3v-3l2-1v-18l-4-3-10-1-5-6-4-4-1-7z" fill="#531E6B"/>
<path transform="translate(916,755)" d="m0 0 3 1 5 10 1 7v4l3 11 4 8v2h2l7 8 2 1v2l5 2 3 2v2l3-1 3 1 8 1 2 1h9l5 1v2l4 1-1 4-3 1v2l-5 2-12 2v-10l-1-1-11-1-8-5-1-3-5-2-6-5-7-8-4-15-4-6 1-2h2l1-7-5-10z" fill="#541F6C"/>
<path transform="translate(1090,113)" d="m0 0h7l9 3 1 4-4 4-10 4h-2l1 2 5 1 3 2v2l5 1 6 7 2 4v7l-2-3-4-8-9-8-11-4-5-1h-13l-10 4-8 8-4 8-2 7-1 11 2 10 2 6-3-3-2-5-2-15 3-12 1-2h2v-5l4-5h3l1-4 12-6 9-1 3-5h3l2-4z" fill="#471A5B"/>
<path transform="translate(1188,786)" d="m0 0h10l6 4 5 6 1 4v11h7l16 6 11 4-6 7-8 7-6-1-15-6h-7l-4 3 2 5 12 13-2 4-8 8-4 1-7-7-7-8-11-12-7-8-4-5-5-5-3-4 15-14 11-9zm0 2-10 6-12 11-8 7v3l11 12 7 8 12 13 7 8 3 4 4-2 7-7-2-5-8-8-4-5 2-4 5-3h8l18 7 5-3 7-7-2-2-18-7-10-1-5 2 3-6 1-6-3-8-7-6-2-1z" fill="#642380"/>
<path transform="translate(1179,181)" d="m0 0 1 2-26 39-2 5 12 8 3-1 17-26 4-5-1 18-2 21v7l15 10 3-3 29-44 5-5h3l-8 11-13 20-3 5h-3l-2 5-5 7-2 5-1 1h-6l-8-7-5-2-2-2v-10h2v-24l-2-1-2 5-9 14-4 4-6-1-10-7-2-3 1-5h2l1-4 13-20 1-2h3l2-5z" fill="#471A5B"/>
<path transform="translate(764,772)" d="m0 0h5v2l4 2 7 8 5 3 9 9 5 8 1 3v9l-5 8-6 5-6 2-2 10-4 6-3 3h-3l-1 3h-14l-10-5-3-4 14 7h9l7-4 4-5 2-5v-10l9-1 5-4 3-5v-11l-4-7-10-10v-2l-4-2-11-10-7 6-30 32-8 9 4 5 8 7 7 7h-3l-6-6-5-3-3-3v-2h-3l-1-2v-6l11-10 3-5 3-4 5-3 4-4 3-5 2-3 5-3 4-4 1-3h2z" fill="#481A5D"/>
<path transform="translate(730,725)" d="m0 0 7 1 2 3v4l3 1 3 6-1 4-4 2-5 5h-4l-1 3-3 2h-4l-1 3-3 2h-4l-1 3-6 1 4-4 20-12 5-5 2-4-6-10-11 6-38 24-5 1v3l7 12 6-2 6-4 2 1-4 4-7 4-5-1-5-7v-4l-3-1v-7l10-5 22-14 13-8 4-4z" fill="#64237F"/>
<path transform="translate(1107,840)" d="m0 0 4 1 13 13 7 8 27 27-1 3-14 6-4-2-5-5v-2l-22 10-1 13-14 7h-3l-4-55v-16l14-7zm0 2-15 7v14l3 44 1 9 9-3 4-2v-13l23-10 4 2 7 6 12-6-6-7-16-17-24-24z" fill="#63237E"/>
<path transform="translate(698,651)" d="m0 0 5 1 5 15-4 3-44 14v3l7 22v3l-10 4h-4l-12-36-2-9 16-6zm1 2-56 18-2 2 13 40 3 1 8-3-3-11-5-15v-2l46-15 2-1-2-10-2-4z" fill="#63237E"/>
<path transform="translate(948,252)" d="m0 0 4 2 4 1 2 10 2 2v4h2v3l7 2 2 1v5l-3 2h-4l-7-1-2-5-2-1-2-7-3-2h-5l-1 9h-3l-2-3 2-10v-4l3-1 1-4 4-1z" fill="#662482"/>
<path transform="translate(766,774)" d="m0 0 8 6 8 7 14 16 1 3v11l-6 8-3 2h-9l1 3v7l-4 8-7 6-3 1h-9l-10-5-3-2h-3l-3-2 1-2-4-5-7-7-7-6 6-8 11-11 7-8 8-8 7-8zm-1 3-9 10-7 7-7 8-7 7-7 8-4 4 2 4 17 16 8 6 6 3h9l6-4 5-6 1-3v-7l-3-6 5 2 7-1 6-5 3-7-2-9-7-9-7-7-8-7-4-4z" fill="#64237F"/>
<path transform="translate(1129,893)" d="m0 0 7 1 3 3v3h6v3l-8 4-17 7h-6v-8h-2l1-7 11-5z" fill="#642380"/>
<path transform="translate(1312,655)" d="m0 0h17l2 2-1 7-3 10-3 3-7 1-5 1-1 5-3 11 1 4 6 6-1 10-4 10-7-1-6-4v-2l-5-2-7-6-1-2-6-3-5-6h3l16 13 15 11 5-13-1-5-7-5 1-7 6-18h13l4-16 1-2-36 2-35 1-1 5-2 6h-1v-7l3-5 7-1 47-2z" fill="#461959"/>
<path transform="translate(918,795)" d="m0 0 2 1 3 6 9 10 7 4 5 5 7 4-3 3h-7l-7-2-16-2z" fill="#662482"/>
<path transform="translate(885,396)" d="m0 0h2l2 3 2 8 2 7 1 7 1 1 1 11-3 5-4 10-2 2 1 5 1 6-3 5-4 4h-2l-1 13v12l3 13-8 4-1-5 2-3-1-11-1-3v-10l3-10 4-6h2v-12l3-3 7-18-1-9-5-21z" fill="#531E6B"/>
<path transform="translate(866,844)" d="m0 0h6l4 2v2l3 1 1 4-5 10-2 2h-6l-16-8-3-1v4l17 9 2 2v6l-5 9-4 1-13-5-3-2v-2l-7-1-2 8 5 1 8 4v2l6 2 6 3-1 7-2 4-4 2 4-12-25-12 2-6 3-6 6 2 19 9 2-6 3-6-4-3-19-9 2-6 2-3 6 2 19 9 3-4 3-8-11-6z" fill="#4B1B60"/>
<path transform="translate(1019,866)" d="m0 0 4 1-3 2-26 3 1 10 16-2h6l6 44v7l15-1-5-36-2-16 10-2h8v2l-7 1h-8l6 45v7l-9 2h-9l-3-16-4-31v-4l-21 3-2-9v-6l20-3z" fill="#63237E"/>
<path transform="translate(902,332)" d="m0 0 1 2-3 4v3h-2v3h-2v2l2 1-2 7-2 3 2 15-4 4-4 9-1 2v9h-2l5 16 3 13-1 9-6 15h-3l4-10 2-6 1-2v-7l-2-5-2-12-2-5-2-9 1-9 2-5 4-9 1-17 2-5 1-5 5-7h2v-3z" fill="#531E6B"/>
<path transform="translate(1074,142)" d="m0 0h11l7 4 4 8v11l-4 12-6 7-4 2h-10l-7-4-3-4-1-3v-14l4-11 4-5zm2 3-6 4-5 10-1 4v11l4 6 6 3 9-1 7-8 3-11v-7l-3-7-4-3-3-1z" fill="#4C1B61"/>
<path transform="translate(753,812)" d="m0 0 4 2 8 8 1 2v6l-5 6-6 1-7-4-7-7 4-6z" fill="#5F227A"/>
<path transform="translate(873,511)" d="m0 0 2 1v9l-3 2v8l-2 5-1 6-1 3 1 14v8l-4 6h-2l2 16 3 12-1 12-3-1 1-5v-8l-3-9-1-8v-10l2-10v-18l1-5 1-7 3-11 3-8z" fill="#541F6C"/>
<path transform="translate(1078,470)" d="m0 0h1v12l-8 13-1 6-4 5h-2l-2 4-10 4-21 6-8-1-12 2-3 5-3 12-4 1-1-2 3-6 1-1 2-9 2-4 19-2 18-4 13-5 7-5 2-7 5-6 5-8z" fill="#4F1D66"/>
<path transform="translate(1105,838)" d="m0 0h6l9 10 13 12 11 11 3 5 6 4 8 9v2l-4 3-13 5-2-1 15-7-2-4-31-31-7-8-7-7-6 1-12 6h-2l4 60v10h-1l-1-5-3-46-1-1-1-8v-9l5-5z" fill="#431855"/>
<path transform="translate(1185,802)" d="m0 0h6l5 4 2 6-3 6-6 6-4-1-10-11 2-4z" fill="#5E2179"/>
<path transform="translate(927,908)" d="m0 0 7 3 4 10 1 10-1 4h-10l-6-3 2-9 1-13z" fill="#64237F"/>
<path transform="translate(927,876)" d="m0 0 12 2 5 4v9l-5 5h-9l-6-2z" fill="#5F227A"/>
<path transform="translate(1047,860)" d="m0 0h6l3 4 1 7-2 4-3-12-56 7h-4l3 14 20-2 3 20 3 22v8h-1l-4-29v-8h-2l-1-9-18 1-4-3-1-5v-8l3-4 24-3 24-1v-2z" fill="#511E68"/>
<path transform="translate(1105,857)" d="m0 0 7 6 14 15-3 3-14 6h-2l-2-22z" fill="#4C1C62"/>
<path transform="translate(1177,789)" d="m0 0 4 1-10 9-16 14 5 6v2l3 1 6 7v2l4 2 6 7v2l3 1 6 7v2l3 1 7 8 5-2 8-8-2-4-3-3 1-4 3 3 1 3 3 2-1 5-2 1-3 5-6 5-7-1-3-3-1-3-5-4-3-5-4-2-5-8-4-2-6-9-6-5-2-4-3-2 1-6 2-1 1-3 8-5 2-4z" fill="#471A5B"/>
<path transform="translate(1268,674)" d="m0 0h31l-6 19-9-6-16-12z" fill="#61227C"/>
<path transform="translate(783,204)" d="m0 0h3l7 11 2 5v17l-6 9-9 8-10 5-4 1h-10l-7-3-5-3-1-3-3-1-7-10-5-7 1-4 12 16 6 7 7 4h14l12-6 7-6 4-6 2-7-1-10-6-11-3-4z" fill="#4C1C61"/>
<path transform="translate(934,640)" d="m0 0 1 3 1 6 7 6 6 1h3l5 3v2l3 1 1 10-3 12-4 5-4 3-4 1-8 6-4 7h-2v-5l4-2 1-4 6-4h3l2-4 2-2h3v-3l2-1v-18l-4-3-10-1-5-6-4-4-1-7z" fill="#541E6B"/>
<path transform="translate(762,176)" d="m0 0 5 2 4 5v4h3l3 7 5 5 3 8 8 14v9l-2-3-3-10-11-16-12-17-2-2-4 3-3-1-6 5 4 7-1 2-5-5-1-5 1-2 3-3z" fill="#63237F"/>
<path transform="translate(1316,657)" d="m0 0h13l-4 16-1 2h-13l-3 12-4 13 5 2 4 4-1 7-2 6-2-1 2-11-9-7 6-20 3-7 12-1 4-13-8 1-24 1h-19l-6-1v-1z" fill="#63237F"/>
<path transform="translate(976,115)" d="m0 0 6 1v2l-8 1h-9l1 66h18l-1-64h2l1 45v20l-7 2h-11l-4-2-1-4v-65l2-1z" fill="#3F1750"/>
<path transform="translate(770,794)" d="m0 0 4 2 6 5 2 4-1 6-5 4-6-1-10-9 6-7z" fill="#5E2178"/>
<path transform="translate(834,829)" d="m0 0 9 1 3 2v2l6 2 14 7-3 1-24-12-4-1-2 6-11 22-11 23-4 9 6 2 35 17-3 1-37-18-3-1v-6l21-42h2l2-6z" fill="#431856"/>
<path transform="translate(912,860)" d="m0 0h9l11 2v1l-14-1 25 4 11 4 5 5 2 3v14l-4 7-7 4 6 11v5l-2-1-4-10-3-3-5-2 4-2 8-3 3-4 2-11-3-8-10-5-22-4-12-1-2 8-2 13-2-1 3-20z" fill="#63237F"/>
<path transform="translate(888,125)" d="m0 0 5 1 5 13 2 11 2 10h2l7 23 1 8-2 3h-7l3-2 4-1-18-60-2-3-13 4-2 1 4 14 2 11v6l-6-5 2-1 2 1-6-20v-8l2-2z" fill="#4A1B5E"/>
<path transform="translate(1221,742)" d="m0 0 1 4 19 12 26 17 7 4 2-5 4-3-3 11-2 1h-6v-2l-4-1-4-3v-2l-5-2-10-5-7-5-5-6-12-8-4-4z" fill="#64237F"/>
<path transform="translate(724,206)" d="m0 0m-1 1m-2 1h2l-1 3h-2l4 7 13 18 8 11 7 6 7 2 9-1 10-5 8-7 4-7 3-9h1l-1 9-3 6-6 7-11 7-5 2h-14l-9-6-7-8-9-13-6-4-6-15z" fill="#5F2179"/>
<path transform="translate(1179,181)" d="m0 0 1 2-26 39-2 5 12 8 3-1 14-21 5-2v8l-4-4-2 5-9 14-4 4-6-1-10-7-2-3 1-5h2l1-4 13-20 1-2h3l2-5z" fill="#4D1C63"/>
<path transform="translate(914,861)" d="m0 0 12 1 25 4 3 1v2l5 2 5 8v11l-3 7-6 7 9 27-1 5-2-3-7-21-5-9 8-5 3-6v-14l-2-5-4-2-11-4-29-5z" fill="#4C1C62"/>
<path transform="translate(1106,305)" d="m0 0h4l2 8-1 10-7 5-7 1-1 4-6 2-1 2-1-4 3-3 2-5 7-4 3-4 2-11z" fill="#662482"/>
<path transform="translate(1113,154)" d="m0 0h2l1 10-2 11-2 5h-2l-2 8-5 4-4 5-10 4h-18l-13-5-8-6-2-2 1-4 2 4 4 2 8 5 11 3h13l10-4 7-6 6-12 2-7z" fill="#481A5C"/>
<path transform="translate(1061,743)" d="m0 0 4 2h6l2-2-1 5-1 2h-3l-2 4-5 7h-7l-1 5-6 3-1-4h-2l1-3 7-2-1-2 4-3h2l-1-4-4-3v-2h7z" fill="#682784"/>
<path transform="translate(1083,741)" d="m0 0h7l2 3h-3l-1 2h2v3h7l5 2-1 3-6 1-4 4-10-2-2-5v-8z" fill="#662482"/>
<path transform="translate(963,825)" d="m0 0 2 4v2l13-2 3-1v-2l3-1v3l-2 3h-2v2l-12 3-16 1v-2l-4 1h-8l-7-2-17-2 1-2 19 1 10 4v-2l14-2z" fill="#511D68"/>
<path transform="translate(995,248)" d="m0 0 4 2 9 10 5 5 8 6 15 6 12 8 12 5 5 5 2 3v6l-3 5-2-1 2-4 1-5-5-6-15-6-14-10h-6l-7-3-5-5-8-7-4-7-4-2z" fill="#451958"/>
<path transform="translate(1107,840)" d="m0 0 4 1 13 13 7 8 27 27-1 3-5 2-3-1 5-4-12-12-7-8-26-26-6 2-9 4h-2v14h-1l-1-5v-10l14-7z" fill="#642380"/>
<path transform="translate(983,125)" d="m0 0h1v60h-18l-1-14v-16l2-1 1 15v14h14v-37z" fill="#62237D"/>
<path transform="translate(737,743)" d="m0 0m-1 1v3l-22 14-5 3-3 5-10 3-8 5-3-1-8-14 3-3h2l-1 5 6 9 5-2 20-12 22-14z" fill="#63237E"/>
<path transform="translate(979,243)" d="m0 0h13l7 3 6 7 7 9 4 2v2l4 1v2l10 3 2 3-9-2-9-6-6-5-7-9-4-4-9-1h-13v-3z" fill="#541F6C"/>
<path transform="translate(894,766)" d="m0 0 5 1 10 3 4 4-1 53h-2l-1-51-3-3-8-3-6-1-21-1v-1z" fill="#411753"/>
<path transform="translate(1e3 541)" d="m0 0h1l-1 7-5 5-9 4h-11l-6-2h-4v7l1 2 9 1-4 3-7 1-3-2v-11l-1-2v-6l11 4 3 2h13l9-5h2l1-5z" fill="#431855"/>
<path transform="translate(885,396)" d="m0 0h2l2 3 2 8 2 7 1 7 1 1 1 11-3 5-4 10-2 2 1 5 1 6-3 5-4 4h-2l5-10v-11l7-18-1-9-5-21z" fill="#451958"/>
<path transform="translate(1188,169)" d="m0 0 10 5 8 6 1 6-1 14-1 5h-1v-12l-2-4-2-7-11-7-6 5-3 1 2-5 3-6z" fill="#5F2279"/>
<path transform="translate(762,776)" d="m0 0v3l-7 7-7 8-8 8-7 8-7 7-4 6 15 14 4 5-4-2-5-5-5-3-3-3v-2h-3l-1-2v-6l11-10 3-5 3-4 5-3 4-4 3-5 2-3 5-3z" fill="#4B1B60"/>
<path transform="translate(957,313)" d="m0 0 10 2-3 9-3 4-1 5-4 1-3-2-1-6 2-3v-5l-1-2z" fill="#662482"/>
<path transform="translate(1091,115)" d="m0 0 8 1 7 2-3 3-13 7-9-2v-3z" fill="#642380"/>
<path transform="translate(759,205)" d="m0 0 5 5 10 15 2 4-1 7-5 4-2 1h-6l-5-4-12-17 1-2 5 4 7 11 8 6 6-3v-7l-6-10-1-4-5-5z" fill="#451958"/>
<path transform="translate(921,771)" d="m0 0 1 4 5 17 6 9 11 10 8 5 10 2v1l-10 1-8-5-1-3-5-2-6-5-7-8-4-15-4-6 1-2h2z" fill="#451957"/>
<path transform="translate(1226,729)" d="m0 0 7 1 14 9 2 4-5-2-12-8-5-2-2 4-6 10 4 4 12 8-4 1-14-9-1-5 1-3h2l1-4z" fill="#4F1D65"/>
<path transform="translate(1106,118)" d="m0 0v3l-3 3-10 4h-2l1 2 5 1 3 2v2l5 1 6 7 2 4v7l-2-3-4-8-9-8-11-4-18-2v-1l9-1 6-1 6 1z" fill="#3F1750"/>
<path transform="translate(1273,698)" d="m0 0 4 2 14 11 16 12 5-13-1-5-2-3 5 2 1 1-1 10-4 10-7-1-6-4v-2l-5-2-7-6-1-2-6-3-5-6z" fill="#4B1B61"/>
<path transform="translate(1214,811)" d="m0 0 9 2 21 8-6 7-8 7-6-1-15-6-4-2 5-1 18 7 5-3 6-6-11-5-12-4v-2z" fill="#63237E"/>
<path transform="translate(858,164)" d="m0 0 7 6 18 18v2l4 2 3 3 13-1v2l-9 3-6-1-8-8-3-5-12-12-2-1 3 12-1 4-7-22z" fill="#3F1750"/>
<path transform="translate(1105,857)" d="m0 0 7 6 14 15-3 3-14 6h-2l-2-22zm2 5 2 22 9-3 4-2-2-4-2-3h-2l-2-4z" fill="#64237F"/>
<path transform="translate(1237,817)" d="m0 0 5 1 3 2-1 6-5 3-6 7-8 1-17-7v-2l-8 2 1 5 5 5-1 2-7-7-1-4 5-4h7l18 7 4-1 8-7 4-4-2-1v-2z" fill="#4B1B61"/>
<path transform="translate(1268,674)" d="m0 0h31l-6 19-9-6-16-12zm6 2 5 5 12 9 2-3 3-11z" fill="#63237F"/>
<path transform="translate(753,812)" d="m0 0 4 2 8 8 1 2v6l-5 6-6 1-7-4-7-7 4-6zm0 3-9 9 2 4 7 6 5 1 6-5-1-7-8-8z" fill="#64237F"/>
<path transform="translate(758,182)" d="m0 0m-2 1 2 1-5 5 2 5 13 18 9 14v3h-2l-7-12-8-11-4-1-2-3-2-7-3-6z" fill="#5F227A"/>
<path transform="translate(873,513)" d="m0 0 2 4-1 5-2 1v8l-2 5-1 6-1 3 1 14v8l-5 5 1-7 1-23 3-18z" fill="#47195A"/>
<path transform="translate(977,821)" d="m0 0 5 2-1 5-5 2-12 2v-7l2-2z" fill="#fff"/>
<path transform="translate(856,159)" d="m0 0 7 6 18 18 7 8 2 2h8v2l-2 1h-6l-7-6-7-8-17-17 2 8-3-1-3-12z" fill="#652381"/>
<path transform="translate(956,815)" d="m0 0 9 1 2 1h9l5 1v2l4 1-1 4-2 1-1-3-4-1-11 2-2 1-1-4-6-1-2-4z" fill="#551F6D"/>
<path transform="translate(835,874)" d="m0 0 6 2 6 3-3 1-9-3-2 8 5 1 8 4v2l6 2 6 3-1 7-2 4-4 2 4-12-25-12 2-6z" fill="#491B5E"/>
<path transform="translate(1062,385)" d="m0 0 4 4-2 8-1 10-3 7-2 4-1-11 1-9 3-12z" fill="#4E1C64"/>
<path transform="translate(1185,802)" d="m0 0h6l5 4 2 6-3 6-6 6-4-1-10-11 2-4zm1 2-8 6 2 5 7 7 7-6 2-5-3-5-2-2z" fill="#64237F"/>
<path transform="translate(692,750)" d="m0 0 2 1-6 5-4 4-5 1v3l7 12 6-2 6-4 2 1-4 4-7 4-5-1-5-7v-4l-3-1v-7l10-5z" fill="#4C1C62"/>
<path transform="translate(847,854)" d="m0 0 2 1-2 4 18 10 2 2v6l-5 9-4 1-13-5-3-3 9 2 9 4 2-6 3-6-4-3v-2l-6-2-9-5-1-5z" fill="#501D67"/>
<path transform="translate(927,876)" d="m0 0 12 2 5 4v9l-5 5h-9l-6-2zm2 3-2 9v5l3 1h9l3-3v-9l-7-3z" fill="#62237D"/>
<path transform="translate(728,229)" d="m0 0 5 5 10 14 7 6 4 2h17l-2 2-11 1h-6l-8-5-1-3-3-1-7-10-5-7z" fill="#4B1B61"/>
<path transform="translate(766,774)" d="m0 0m-1 1m-1 1 1 2-7 8-8 8-7 8-7 7-7 8-4 4-2-1 9-10 31-33z" fill="#652381"/>
<path transform="translate(770,794)" d="m0 0 4 2 6 5 2 4-1 6-5 4-6-1-10-9 6-7zm0 2-7 8 6 7 6 2 5-5-1-5-8-7z" fill="#62237E"/>
<path transform="translate(659,661)" d="m0 0h8l-3 2-23 8h-2l3 9 2 10 2 9-2-2-5-17-2-5 1-5 3-3z" fill="#4A1B5F"/>
<path transform="translate(1047,860)" d="m0 0h6l3 4 1 7-2 4-3-12-56 7-3-1 9-2 31-4h8v-2z" fill="#3F1750"/>
<path transform="translate(863,573)" d="m0 0h3v16h2l3 14-1 9 1 1 7 1v1h-12l1-14-4-16z" fill="#4A1A5E"/>
<path transform="translate(1023,518)" d="m0 0h4v2l-16 3-4 14 1 2-2 10-5 5h-3l5-6 1-7 2-12 3-7 5-3z" fill="#541F6C"/>
<path transform="translate(895,346)" d="m0 0 3 1-2 7-2 3 2 15-4 4-4 9-3 9h-1l1-9 6-14 1-16z" fill="#441957"/>
<path transform="translate(1075,754)" d="m0 0 3 1 3 3v2l4 1v2h-6l-4-2 1 5-2 1-4-1v3l-3-1 2-8 5-5z" fill="#662482"/>
<path transform="translate(931,711)" d="m0 0h1l-1 9-6 7-9 6-2 3v10l1 7-3-3-2-9 2-10 4-3 10-5 3-7z" fill="#431855"/>
<path transform="translate(1179,181)" d="m0 0 1 2-26 39-1 3-3-1v-2h2l1-4 13-20 1-2h3l2-5z" fill="#481A5C"/>
<path transform="translate(1316,657)" d="m0 0h10l-1 2-7 1-24 1h-19l-6-1v-1z" fill="#61227D"/>
<path transform="translate(1311,656)" d="m0 0h17v1l-35 2-35 1-1 5-2 6h-1v-7l3-5 7-1z" fill="#411853"/>
<path transform="translate(762,176)" d="m0 0 5 2 4 5-1 4-5-6v-2l-10 6-5 5 4 6-1 2-5-5-1-5 1-2 3-3z" fill="#4F1D66"/>
<path transform="translate(897,144)" d="m0 0 2 3 3 10v3h2l7 23 1 8-2 3h-7l3-2 4-1-13-43z" fill="#461959"/>
<path transform="translate(793,226)" d="m0 0h1l-1 9-3 6-6 7-11 7-5 2h-14l-1-3 10 1 10-3 11-8 6-9z" fill="#64237F"/>
<path transform="translate(864,177)" d="m0 0 2 3 6 21-2 5-13 4h-5v-2h-2l-2-5 1-4 2 8 8-1 9-3 1-1-3-10-2-11z" fill="#4F1D66"/>
<path transform="translate(723,821)" d="m0 0 5 5 15 14 8 6 7 4-1 2-10-5-3-2h-3l-3-2 1-2-4-5-7-7-6-5z" fill="#61227C"/>
<path transform="translate(1021,516)" d="m0 0h7v2l-17 3-3 5-3 12-4 1-1-2 3-6 1-1 2-9 2-4z" fill="#46195A"/>
<path transform="translate(1090,113)" d="m0 0h7l9 3v2l-7-1-8-1-10 8-1 3-2 1-15 2 1-2 12-2 3-5h3l2-4z" fill="#4B1B60"/>
<path transform="translate(1235,758)" d="m0 0 5 2 25 16 8 5 5-4-1 5-2 1h-6v-2l-4-1-4-3v-2l-5-2-10-5-7-5z" fill="#451959"/>
<path transform="translate(1086,348)" d="m0 0h2l-1 4-8 9-9 11-4 6-1 6h-2l-1-7 8-10h2l2-4 4-6 3-3z" fill="#441857"/>
<path transform="translate(1061,310)" d="m0 0h2l-2 5v7l5 2h14l-2 4h-10l-6-2-8-1 3-8 1-5z" fill="#451958"/>
<path transform="translate(956,917)" d="m0 0 2 4 4 12v4l-17-2-3-1-3-12 3 1 2 9 14 2-3-15z" fill="#62237E"/>
<path transform="translate(1056,419)" d="m0 0h2l-1 4v11l3 6 9 6 3 4-1 3-5-6-12-7-1-3 1-5-2-7 2-5z" fill="#441957"/>
<path transform="translate(910,306)" d="m0 0 2 1-1 13-3 6 1 2-6 11-3 2v-4l8-20 1-10z" fill="#531E6B"/>
<path transform="translate(1032,274)" d="m0 0 5 1 3 2v2l4 1 2 1v2l7 1 5 3 8 5 3 5v5l-2 1-2-7-5-5-14-6-14-9z" fill="#541F6C"/>
<path transform="translate(764,772)" d="m0 0h5v2l4 2 7 8 5 3 9 9-1 2-5-3-6-6v-2l-4-2-11-10-5 2-1-2h2z" fill="#4A1B5F"/>
<path transform="translate(951,687)" d="m0 0m-1 1m-1 1m-1 1m-1 1 1 3-8 6-4 7-2 11-3 2v-8l-1-2 1-8 1 4h2l2-5 5-5z" fill="#531E6A"/>
<path transform="translate(887,408)" d="m0 0h2l4 17-1 9-6 15h-3l4-10 2-6 1-2v-7l-2-5z" fill="#541F6C"/>
<path transform="translate(917,830)" d="m0 0 19 1 10 4v-2l5-1h9l-1 2-11 2h-8l-7-2-17-2z" fill="#451958"/>
<path transform="translate(878,471)" d="m0 0h1v24l3 13-7 3 2-5v-7l-1-4v-19z" fill="#431856"/>
<path transform="translate(911,290)" d="m0 0 3 3-1 9 2 8-1 1v7l2 4-5 1-4 4 2-5 1-2 1-13z" fill="#451958"/>
<path transform="translate(1112,167)" d="m0 0 1 2-4 12-6 9-6 5-10 4h-2l1-3 9-3 8-7 5-10 3-8z" fill="#62227D"/>
<path transform="translate(1141,871)" d="m0 0 7 6 5 3 8 9v2l-4 3-13 5-2-1 15-7-2-4-14-14z" fill="#461959"/>
<path transform="translate(714,738)" d="m0 0m-2 1h2l-1 3-20 12-4 3-2-1 6-5 5-5 10-6z" fill="#5B2074"/>
<path transform="translate(1049,877)" d="m0 0h5l-3 2-14 2v11l4 31v7h-1l-6-44v-7z" fill="#3F1750"/>
<path transform="translate(854,139)" d="m0 0 4 2 22 22-1-12 2 3 4 13-1 3-30-30z" fill="#3F1750"/>
<path transform="translate(1206,840)" d="m0 0 4 3 1 3 3 2-1 5-2 1-3 5-6 5-7-1-3-3 1-2 4 3 5-1 9-9-2-4-3-3z" fill="#481A5C"/>
<path transform="translate(914,861)" d="m0 0 12 1 25 4 3 1v2l5 2 3 4-1 3-3-3v-2l-4-2-11-4-29-5z" fill="#451958"/>
<path transform="translate(753,815)" d="m0 0 4 2 7 8v5l-6 5-6-2-8-7 2-4zm-1 3-5 5 1 5 6 5h5l3-3v-6l-6-6z" fill="#3F1750"/>
<path transform="translate(738,745)" d="m0 0 2 1-5 5h-4l-1 3-3 2h-4l-1 3-3 2h-4l-1 3-6 1 4-4 20-12z" fill="#491B5E"/>
<path transform="translate(1083,356)" d="m0 0 1 2-2 4h-2l-2 5-5 5-3 1-1 4-3 10-3-1v-2h2v-6l4-6 13-15z" fill="#541F6C"/>
<path transform="translate(930,263)" d="m0 0 3 1-1 6-2 8-13 6-3 5h-2l2-5 6-5 6-4 3-6z" fill="#451958"/>
<path transform="translate(847,137)" d="m0 0h8l7 6-1 2-5-5h-7l-12 4h-3l1 4-2 4-1-8 2-3z" fill="#4E1D65"/>
<path transform="translate(1011,882)" d="m0 0h4l3 20 3 22v8h-1l-6-45-1-2h-16v-1z" fill="#3F1750"/>
<path transform="translate(697,649)" d="m0 0h6l4 10 1 7-2-3-4-11-7 1-24 8-4-1 21-7h3v-2z" fill="#431856"/>
<path transform="translate(1266,754)" d="m0 0 7 2 9 6 3 3-1 7-3 5h-3l2-5 3-5-11-8-6-4z" fill="#4A1B5F"/>
<path transform="translate(1312,655)" d="m0 0h17l2 2-1 7-3 10-3 3-7 1v-2l6-1 5-16v-2l-16-1z" fill="#4B1B60"/>
<path transform="translate(934,640)" d="m0 0 1 3 1 6 7 6 9 3-4 2-7-1-5-6-4-4-1-7z" fill="#441857"/>
<path transform="translate(1273,698)" d="m0 0 4 2 14 11 10 8h-3l-6-3-7-6-1-2-6-3-5-6z" fill="#471A5B"/>
<path transform="translate(1326,657)" d="m0 0h3l-4 16-1 2h-13l-2 5-1-3 2-4 12-1 3-9v-5z" fill="#642380"/>
<path transform="translate(1124,852)" d="m0 0 7 6 13 13-1 2-5-3-14-14z" fill="#4F1D65"/>
<path transform="translate(730,725)" d="m0 0 4 1-6 4h-2l-2 5-8 5h-6l4-4 7-4 4-4z" fill="#571F6F"/>
<path transform="translate(1204,184)" d="m0 0h1v11l-1 10v14l3-2-2 5-4 6h-1l2-25z" fill="#3F1750"/>
<path transform="translate(1220,196)" d="m0 0v3l-12 18-5 3v-15l2 1v9h2l2-5 4-6 4-4z" fill="#4B1B60"/>
<path transform="translate(1091,117)" d="m0 0 8 1 2 2-13 6-4-1 2-4z" fill="#fff"/>
<path transform="translate(953,683)" d="m0 0h2l-2 4-11 9-5 5-3 5h-2v-5l4-2 1-4 6-4h3l2-4 2-2h3z" fill="#451958"/>
<path transform="translate(876,137)" d="m0 0h2l9 30-1 5h-1l-7-25z" fill="#62227D"/>
<path transform="translate(949,244)" d="m0 0 11 2 14 1 1 3-2 4-4-3-3-1-12-1z" fill="#431856"/>
<path transform="translate(1074,142)" d="m0 0h8v1l-9 3-5 5-4 11-2 10h-1v-11l4-11 4-5z" fill="#64237F"/>
<path transform="translate(1186,804)" d="m0 0h5l4 4 1 4-3 5-6 5-7-7-2-5 4-2v6l4 4 4-1 3-4-1-5-1-1h-8z" fill="#3F1750"/>
<path transform="translate(859,680)" d="m0 0 4 3-1 4-2 1v7l-5 3-3 6h-4l2-4 5-6 3-8z" fill="#431855"/>
<path transform="translate(987,580)" d="m0 0 2 1-3 6-12 6h-3l-2 4-3 1 2-5 14-8 3-4z" fill="#541F6C"/>
<path transform="translate(929,879)" d="m0 0 10 1 3 2v9l-3 3h-9l-3-1 1-12zm1 2-1 2v8l3 2 7-1 2-2v-6l-4-3z" fill="#3F1750"/>
<path transform="translate(682,758)" d="m0 0m-2 1h2l-1 5 6 9 10-4-2 4-7 4-3-1-8-14z" fill="#63237F"/>
<path transform="translate(1187,203)" d="m0 0h1l-1 18-3 27h-1l1-19 2-18-4 2 2-5z" fill="#3F1750"/>
<path transform="translate(704,651)" d="m0 0 2 1 4 13-1 5-6 3-7 2h-7l3-2 14-5 1-2-1-7z" fill="#541F6C"/>
<path transform="translate(1095,130)" d="m0 0 5 3v2l5 1 6 7 2 4v7l-2-3-4-8-9-8-4-2z" fill="#491B5E"/>
<path transform="translate(1274,676)" d="m0 0h22l-3 11-2 3-6-5h3 3l1-7h-11v3l-4-2z" fill="#3F1750"/>
<path transform="translate(1052,862)" d="m0 0h1v5l-2-1-16 1-13 1 1-2 19-3z" fill="#64237F"/>
<path transform="translate(1172,834)" d="m0 0 7 6v2l3 1 6 7v2l3 1 6 7-1 2-10-9-3-5-4-2-5-8z" fill="#451958"/>
<path transform="translate(1227,729)" d="m0 0 6 1 14 9 2 4-5-2-12-8-5-2-2 4v-3z" fill="#491B5E"/>
<path transform="translate(1111,329)" d="m0 0 2 3-12 7-9 8-1-4 4-4 5-3 1-2 9-4z" fill="#451958"/>
<path transform="translate(880,188)" d="m0 0 6 3 4 4 13-1v2l-9 3-6-1-8-8z" fill="#4C1C61"/>
<path transform="translate(691,671)" d="m0 0 4 2-32 10 1-3z" fill="#62237D"/>
<path transform="translate(1184,211)" d="m0 0h2v8l-4-4-2 5-6 9-4 2 2-5 9-13z" fill="#4C1C61"/>
<path transform="translate(984,179)" d="m0 0 2 4v3l-7 2h-11l-4-2-1-4h2l1 2 18 1z" fill="#4F1D65"/>
<path transform="translate(770,796)" d="m0 0 8 6 2 3-1 5-4 3-6-2-6-7zm0 3-4 4 1 4 5 4 5-1 1-5-4-5z" fill="#3F1750"/>
<path transform="translate(912,860)" d="m0 0h9l11 2v1l-18-1-3 5-3 19-2-1 3-20z" fill="#541F6C"/>
<path transform="translate(978,585)" d="m0 0h5l-4 3-9 5h-2l-2 5-1 2h-3l1-4 4-6 7-3z" fill="#451958"/>
<path transform="translate(1078,470)" d="m0 0h1v12l-11 18-2 1 1-7 5-6 5-8z" fill="#441856"/>
<path transform="translate(1185,245)" d="m0 0 5 5 11 7 2-5 4-3-2 5-4 6-11-7-6-4z" fill="#642380"/>
<path transform="translate(925,833)" d="m0 0h8l7 2h12l-3 3-6 1-11-3-7-1z" fill="#541F6C"/>
<path transform="translate(762,776)" d="m0 0v3l-7 7-7 8-8 8v-3l6-6 3-5 2-3 5-3z" fill="#451958"/>
<path transform="translate(1182,240)" d="m0 0h1l1 8 16 11 5-2-2 4h-6l-8-7-5-2-2-2z" fill="#4C1C62"/>
<path transform="translate(866,546)" d="m0 0h2l1 13v8l-5 5 1-7z" fill="#451958"/>
<path transform="translate(868,624)" d="m0 0h6l2 4-2 2h-3v11l-4 1 1-9 1-6z" fill="#441857"/>
<path transform="translate(859,737)" d="m0 0 5 2-1 8-1 5-2 3-1-11-5-4z" fill="#47195A"/>
<path transform="translate(844,710)" d="m0 0 3 4v10l3 4 1 10-3-4-4-12z" fill="#461959"/>
<path transform="translate(745,218)" d="m0 0 5 3 10 14 4 4-5-2-5-4-9-13z" fill="#4B1B60"/>
<path transform="translate(888,125)" d="m0 0 5 1 5 13v5h-2l-5-15-2-1-10 1 2-2z" fill="#4D1C63"/>
<path transform="translate(925,906)" d="m0 0 9 3 4 8-1 4-4-10-6-2-2 5-3 16-1-4 3-19z" fill="#3F1750"/>
<path transform="translate(1188,169)" d="m0 0 10 5 5 4 1 3-5-2-11-7-4 3 1-5z" fill="#4A1B5F"/>
<path transform="translate(1132,887)" d="m0 0 4 2 7 6 6-2 1 2-9 3-7-7v-2l-7 3 2-4z" fill="#62227D"/>
<path transform="translate(937,878)" d="m0 0 5 2 2 2v9l-5 5h-9v-2l9-1 2-2v-9l-4-2z" fill="#63237F"/>
<path transform="translate(1107,862)" d="m0 0 7 6 2 4-4-3h-2l1 11 4 2-6 2z" fill="#3F1750"/>
<path transform="translate(1088,739)" d="m0 0 5 2 7 1-1 2-5 1 2 4-3 1-3-1v-3h-2l1-3 1-1-3-2z" fill="#fff"/>
<path transform="translate(961,621)" d="m0 0 2 1-4 6-12 3-3-1 5-3 10-4z" fill="#541F6D"/>
<path transform="translate(1097,307)" d="m0 0h1v9l-5 4-5 3-2 3-5-1 3-3 10-7z" fill="#411752"/>
<path transform="translate(961,877)" d="m0 0h2l1 2v11l-3 7-3 1 2-6z" fill="#4B1B60"/>
<path transform="translate(967,558)" d="m0 0 3 6 9 1-4 3-7 1-3-2z" fill="#451958"/>
<path transform="translate(1052,287)" d="m0 0 8 3 5 5 2 3v6l-3 5-2-1 2-4 1-5-5-6-7-3z" fill="#481A5B"/>
<path transform="translate(948,624)" d="m0 0 5 1v2l-9 3-5 5-2 3h-2l1-4 3-5 6-3z" fill="#441857"/>
<path transform="translate(976,115)" d="m0 0 6 1v2l-8 1h-9l-1 3-1-5 2-1z" fill="#4E1C64"/>
<path transform="translate(793,226)" d="m0 0h1l-1 9-3 6-6 7-5 3 2-4 7-8z" fill="#61227C"/>
<path transform="translate(692,750)" d="m0 0 2 1-6 5-4 4-5 1-1 4-1 2-1-1v-7l10-5z" fill="#4D1C63"/>
<path transform="translate(1017,898)" d="m0 0 1 3h2l2 15v8h-2l-3-22z" fill="#62227D"/>
<path transform="translate(1214,811)" d="m0 0 9 2 15 6v2l-5-1-17-6v-2z" fill="#62227D"/>
<path transform="translate(710,760)" d="m0 0m-2 1h2l-2 5-4 4-7 1 2-4z" fill="#592072"/>
<path transform="translate(734,726)" d="m0 0h3l2 3v4l3 1 3 6-1 4-4 1 1-2h2l-7-12z" fill="#4C1C61"/>
<path transform="translate(885,449)" d="m0 0h1l3 12-3 5-4 4h-2l5-10z" fill="#411753"/>
<path transform="translate(760,179)" d="m0 0 2 1-12 9 4 7-1 2-5-5-1-5 1-2 5-2z" fill="#471A5B"/>
<path transform="translate(1062,166)" d="m0 0h1l1 9 4 6 4 2 6 1-2 2-7-1-6-5-2-5z" fill="#61227C"/>
<path transform="translate(1132,889)" d="m0 0h2l7 8h-3l-5-3-9 1-4 2-3-1z" fill="#431856"/>
<path transform="translate(846,852)" d="m0 0 6 2-6 2 1 5 14 7-3 1-16-8 2-6z" fill="#3F1750"/>
<path transform="translate(834,148)" d="m0 0 2 3 7 23v4h-2l-3-9-1-7-3-10z" fill="#441957"/>
<path transform="translate(685,675)" d="m0 0 4 1-27 9-1 5-2-3-1-3z" fill="#3F1750"/>
<path transform="translate(859,670)" d="m0 0 1 2v8l-2 7-2-1v-11z" fill="#541F6C"/>
<path transform="translate(1033,276)" d="m0 0 9 5 6 4 4 2v2l-7-2-11-8z" fill="#441857"/>
<path transform="translate(1113,154)" d="m0 0h2l1 10-2 11-2 5-1-3 1-3z" fill="#4D1C63"/>
<path transform="translate(1047,860)" d="m0 0h6l3 4 1 7-2 4-3-12-11-1v-1z" fill="#4F1D65"/>
<path transform="translate(777,840)" d="m0 0 1 2-6 7-6 3h-8v-2l10-2 8-7z" fill="#63237E"/>
<path transform="translate(722,824)" d="m0 0 8 6 11 11h-3l-6-6-5-3-5-6z" fill="#461959"/>
<path transform="translate(1252,671)" d="m0 0h2l-2 10 4 2 3 4-5-1-4-4 1-9z" fill="#4B1B61"/>
<path transform="translate(863,573)" d="m0 0h3v16h2l-1 6-2-3-2-7z" fill="#441856"/>
<path transform="translate(817,868)" d="m0 0h2l-3 9-5 10-3 1 2-6z" fill="#62227D"/>
<path transform="translate(1111,872)" d="m0 0 4 1 4 3-2 4h-5l-1-1z" fill="#63237F"/>
<path transform="translate(866,844)" d="m0 0h6l4 2v2l3 1 1 4-3 6-1-2 1-6-11-6z" fill="#4E1C64"/>
<path transform="translate(1158,820)" d="m0 0 5 2 6 7v2l4 2v4l-3-1-6-9-6-5z" fill="#4B1B61"/>
<path transform="translate(944,629)" d="m0 0m-1 1 1 3-4 4-3 5-2 1-1-2-2 1 2-5 3 1 2-5z" fill="#521E6A"/>
<path transform="translate(878,471)" d="m0 0h1v19l-1 3h-2v-17z" fill="#481A5C"/>
<path transform="translate(1060,397)" d="m0 0 1 4-1 13-2 4-1-11 1-9z" fill="#461959"/>
<path transform="translate(1238,206)" d="m0 0 2 1-8 11-5 5v-3l8-12z" fill="#4A1B5F"/>
<path transform="translate(1202,827)" d="m0 0h7l5 2-3 1-7-1-4 1 1 5 5 5-1 2-7-7-1-4z" fill="#3F1750"/>
<path transform="translate(764,801)" d="m0 0v3l5 6 6 2 2 1-1 2-6-1-9-8 2-4z" fill="#642380"/>
<path transform="translate(1177,789)" d="m0 0 4 1-10 9-5 1 1-3z" fill="#4C1C62"/>
<path transform="translate(931,711)" d="m0 0h1l-1 9-6 7-5 3-2-1 2-3 7-4 3-10z" fill="#451957"/>
<path transform="translate(638,672)" d="m0 0 2 1 4 17 2 9-2-2-5-17-2-7z" fill="#4F1D66"/>
<path transform="translate(1054,139)" d="m0 0v3l-6 12-1 4-3 1 3-11 4-7z" fill="#62227D"/>
<path transform="translate(978,118)" d="m0 0h5v28h-1l-1-26-4-1z" fill="#662482"/>
<path transform="translate(1208,800)" d="m0 0h2v11l6 1v1l-11 2 3-12z" fill="#652381"/>
<path transform="translate(663,680)" d="m0 0m-3 1h3v2l-4 2 3 8v5l-2-1-4-12 1-3z" fill="#642380"/>
<path transform="translate(771,187)" d="m0 0h3l3 7 5 5 1 5-5-5-7-10z" fill="#481A5C"/>
<path transform="translate(906,900)" d="m0 0h2l-1 13-2 7-2 1z" fill="#62237D"/>
<path transform="translate(835,874)" d="m0 0 6 2 6 3-3 1-9-3-1 8 1 2-5-1 2-6z" fill="#3F1750"/>
<path transform="translate(943,245)" d="m0 0 1 4-6 3-1 3-4 1-1 5-2 1 2-7 8-8z" fill="#441857"/>
<path transform="translate(867,200)" d="m0 0h2l1 3-11 4-6 1-1-4 3 1 12-3z" fill="#642380"/>
<path transform="translate(1062,129)" d="m0 0h7l-3 2-8 4-7 7v-3l5-7z" fill="#461959"/>
<path transform="translate(1082,142)" d="m0 0 6 1 5 4 2 4v3h-2l-4-7-5-2-7-1v-1z" fill="#62227D"/>
<path transform="translate(852,866)" d="m0 0 9 3 5 4-3 6h-2l1-6-10-5z" fill="#652380"/>
<path transform="translate(1209,855)" d="m0 0v3l-7 6-7-1-3-3 1-2 4 3 5-1 6-4z" fill="#521E69"/>
<path transform="translate(1261,776)" d="m0 0 5 1 8 4 4-4-1 5-2 1h-6v-2l-4-1z" fill="#4B1B61"/>
<path transform="translate(1086,348)" d="m0 0h2l-1 4-8 9h-2l1-4 3-3z" fill="#461959"/>
<path transform="translate(1203,178)" d="m0 0 4 4-1 18-1 5h-1v-21z" fill="#541F6C"/>
<path transform="translate(1056,419)" d="m0 0h2l-2 15-2-2-2-7 2-5z" fill="#431856"/>
<path transform="translate(864,177)" d="m0 0 2 3 4 13v8l-2-3-2-6-2-11z" fill="#4C1C61"/>
<path transform="translate(1220,748)" d="m0 0 5 2 10 7-4 1-9-6z" fill="#481A5C"/>
<path transform="translate(1249,743)" d="m0 0 7 2 6 4 4 5-5-2-12-8z" fill="#471A5A"/>
<path transform="translate(1259,687)" d="m0 0 4 2 10 8-4 1-8-7z" fill="#481A5C"/>
<path transform="translate(1116,303)" d="m0 0 2 2 1 3v16l-2 2v-16l-1-1z" fill="#47195A"/>
<path transform="translate(980,245)" d="m0 0h10l4 2-6 1h-11l-1-2z" fill="#4A1A5E"/>
<path transform="translate(921,771)" d="m0 0 1 4 2 10h-2l-5-10 3-1z" fill="#47195A"/>
<path transform="translate(1e3 541)" d="m0 0h1l-1 7-5 5-6 3h-2l1-3 8-4h2l1-5z" fill="#461959"/>
<path transform="translate(951,832)" d="m0 0h9l-1 2-11 2h-8v-1h6v-2z" fill="#421854"/>
<path transform="translate(914,754)" d="m0 0h2l6 13-1 3-6-9z" fill="#441857"/>
<path transform="translate(714,738)" d="m0 0m-2 1h2l-1 3-8 5-2-1v-3l5-3z" fill="#571F70"/>
<path transform="translate(662,684)" d="m0 0h2l-1 5 4 12-1 4-2-9h-2l-1-3v-8z" fill="#501D67"/>
<path transform="translate(885,396)" d="m0 0h2l2 3 2 8 1 2-2 4-3-8z" fill="#431856"/>
<path transform="translate(908,181)" d="m0 0h2l2 7-1 4-1 2h-7l3-2 4-1-2-6z" fill="#4A1B5F"/>
<path transform="translate(730,725)" d="m0 0 4 1-14 9-2-1 7-6z" fill="#481A5D"/>
<path transform="translate(956,662)" d="m0 0 2 2v12l-1 5-2-3z" fill="#47195A"/>
<path transform="translate(750,255)" d="m0 0 4 1h17l-2 2-11 1h-6z" fill="#46195A"/>
<path transform="translate(1079,121)" d="m0 0 2 1-1 5-2 1-15 2 1-2 12-2z" fill="#541F6C"/>
<path transform="translate(904,920)" d="m0 0h1v6l9 1 1 2h-8l-4-1v-7z" fill="#642380"/>
<path transform="translate(810,877)" d="m0 0h1l-1 7-3 8h-2v-6z" fill="#4F1D65"/>
<path transform="translate(1089,846)" d="m0 0 3 1-2 1-1 18h-1l-1-8v-9z" fill="#541F6C"/>
<path transform="translate(949,244)" d="m0 0 11 2 5 2v1h-11z" fill="#4A1A5E"/>
<path transform="translate(1281,677)" d="m0 0h11v1l-8 1 3 5-5-1-2-5z" fill="#501D67"/>
<path transform="translate(875,478)" d="m0 0h1v16l-3-3v-11z" fill="#541F6C"/>
<path transform="translate(1071,457)" d="m0 0h1l2 7 1 2-4 1-3-3 1-5z" fill="#431855"/>
<path transform="translate(912,312)" d="m0 0h1l2 8 1 2-5 1-4 4 2-5z" fill="#481A5B"/>
<path transform="translate(764,772)" d="m0 0h5v2l4 2-3 2-4-3-4 2-1-2h2z" fill="#501D67"/>
<path transform="translate(1258,660)" d="m0 0h17l-4 2-13 1z" fill="#662482"/>
<path transform="translate(887,378)" d="m0 0 1 2-3 8-1 6-2-1 1-9 3-5z" fill="#541F6C"/>
<path transform="translate(1199,223)" d="m0 0 2 4 4-3-2 5-3 4h-2v-9z" fill="#652381"/>
<path transform="translate(783,204)" d="m0 0h3l7 14-1 3-6-11-3-4z" fill="#441856"/>
<path transform="translate(880,188)" d="m0 0 6 3 5 6h-4l-7-7z" fill="#4F1D66"/>
<path transform="translate(939,922)" d="m0 0 3 1 2 9 3 1v2l-5-1z" fill="#61227C"/>
<path transform="translate(1312,655)" d="m0 0h17l2 2-1 7-2-4v-3l-16-1z" fill="#541F6C"/>
<path transform="translate(728,229)" d="m0 0 5 5 5 7-1 2-5-5-4-5z" fill="#461959"/>
<path transform="translate(735,204)" d="m0 0 7 6 3 4-1 4-9-12z" fill="#461959"/>
<path transform="translate(759,205)" d="m0 0 5 5 5 7-1 2-5-5-4-5z" fill="#461959"/>
<path transform="translate(1048,184)" d="m0 0 3 2v2l4 2 3 5-5-2-5-5z" fill="#4C1C61"/>
<path transform="translate(842,879)" d="m0 0 9 2 6 3-1 2-6-2-8-4z" fill="#4D1C62"/>
<path transform="translate(646,699)" d="m0 0 2 3 1 6h2l2 8-3-1-4-12z" fill="#4E1C64"/>
<path transform="translate(868,630)" d="m0 0 1 3-1 10-3 1-1-4 3-9z" fill="#551F6D"/>
<path transform="translate(964,606)" d="m0 0 1 4-4 11-1-3-3-1 3-2z" fill="#441957"/>
<path transform="translate(867,592)" d="m0 0 3 4 1 7-2 3-3-10z" fill="#4D1B62"/>
<path transform="translate(1309,679)" d="m0 0 1 2-4 12-2-1 2-9z" fill="#62237D"/>
<path transform="translate(906,329)" d="m0 0 1 2-4 8-3 2v-4z" fill="#431855"/>
<path transform="translate(1172,229)" d="m0 0 1 2-6 7h-4l-1-3 5-1z" fill="#4F1D65"/>
<path transform="translate(1106,118)" d="m0 0v3l-3 3-6 3-2-1 4-4z" fill="#4D1C63"/>
<path transform="translate(1191,783)" d="m0 0 7 1v1l-13 1v2l-4 1v-3z" fill="#511D68"/>
<path transform="translate(704,669)" d="m0 0 2 1-10 5h-7l3-2z" fill="#461959"/>
<path transform="translate(1064,502)" d="m0 0 2 1-6 5-6 3-2-1 1-2 10-5z" fill="#451958"/>
<path transform="translate(891,437)" d="m0 0 1 3-4 9-2 1 1-6 3-6z" fill="#47195A"/>
<path transform="translate(963,819)" d="m0 0 11 1-4 3-6 2z" fill="#4A1A5E"/>
<path transform="translate(677,763)" d="m0 0 3 3 5 8-1 2-5-5z" fill="#46195A"/>
<path transform="translate(738,745)" d="m0 0 2 1-5 5-8 2 3-3z" fill="#46195A"/>
<path transform="translate(1258,663)" d="m0 0 1 3-3 9-3 1 3-11z" fill="#62227D"/>
<path transform="translate(867,645)" d="m0 0h2l2 3v6l-4 1z" fill="#451958"/>
<path transform="translate(889,379)" d="m0 0 1 2-3 6-2 7h-1l1-9 3-5z" fill="#461959"/>
<path transform="translate(895,346)" d="m0 0 3 1-2 7-2 3h-2z" fill="#431856"/>
<path transform="translate(899,159)" d="m0 0h2l3 9v5l-2-1-3-10z" fill="#64237F"/>
<path transform="translate(954,900)" d="m0 0 2 1-3 4 3 6-1 3-5-9v-3z" fill="#3F1750"/>
<path transform="translate(834,829)" d="m0 0 9 1 3 3-13-1z" fill="#4F1D65"/>
<path transform="translate(953,683)" d="m0 0h2l-2 4-7 6-2-1 6-7h3z" fill="#411752"/>
<path transform="translate(859,680)" d="m0 0 4 3-1 4-2 1-2 3z" fill="#471A5B"/>
<path transform="translate(848,191)" d="m0 0h2l3 10v3h-2l-3-10z" fill="#63237E"/>
<path transform="translate(878,151)" d="m0 0 2 4 1 9-6-5 2-1 2 1z" fill="#541F6C"/>
<path transform="translate(960,890)" d="m0 0 1 2-4 7-5 3 2-4z" fill="#61227C"/>
<path transform="translate(846,726)" d="m0 0 4 2 1 10-3-4z" fill="#441856"/>
<path transform="translate(1021,516)" d="m0 0h7v2l-5 1h-8l2-2z" fill="#431855"/>
<path transform="translate(873,511)" d="m0 0 2 1v5l-2-1-2 4-2-1 2-6z" fill="#561F6E"/>
<path transform="translate(863,172)" d="m0 0 4 2 7 7h-3l-6-5-2 1z" fill="#541F6C"/>
<path transform="translate(885,127)" d="m0 0 4 1-16 5 2-4z" fill="#471A5B"/>
<path transform="translate(1099,120)" d="m0 0m-2 1h2l-1 3-8 4-2-1 5-4z" fill="#61227C"/>
</svg>
